<svg width="10" height="8" viewBox="0 0 10 8" fill="none" xmlns="http://www.w3.org/2000/svg">
<path d="M7.28339 8H7.29743C7.56144 8 7.81093 7.91681 7.99994 7.7656L9.35599 6.68075C9.4025 6.64364 9.43934 6.59953 9.46448 6.551C9.48962 6.50251 9.50258 6.45048 9.50258 6.39792C9.50258 6.3454 9.48962 6.29337 9.46448 6.24484C9.43934 6.19631 9.4025 6.15224 9.35599 6.11513L7.35593 4.51502C7.30949 4.47786 7.25441 4.44834 7.19374 4.42823C7.13308 4.40812 7.06804 4.39775 7.0024 4.39775C6.93675 4.39775 6.87171 4.40812 6.81105 4.42823C6.75039 4.44834 6.6953 4.47786 6.64886 4.51502L5.85185 5.15268C5.48235 5.06465 4.79281 4.86467 4.35578 4.51502C3.91877 4.16542 3.66876 3.61379 3.55875 3.31817L4.35578 2.68054C4.40226 2.64343 4.43913 2.59934 4.46429 2.55081C4.48944 2.50228 4.50239 2.45026 4.50239 2.39772C4.50239 2.34519 4.48944 2.29317 4.46429 2.24464C4.43913 2.19611 4.40226 2.15203 4.35578 2.11491L2.3557 0.514827C2.26011 0.442645 2.13363 0.402439 2.00219 0.402439C1.87074 0.402439 1.74427 0.442645 1.64868 0.514827L0.293118 1.59968C0.103109 1.75169 -0.00389378 1.9605 0.000108385 2.17372C0.0116049 2.74334 0.200114 4.72186 2.14919 6.28113C4.09828 7.84039 6.5714 7.99083 7.28339 8ZM2.00269 1.36327L3.29574 2.39772L2.64922 2.91495C2.59038 2.96189 2.54716 3.01986 2.52349 3.08358C2.49982 3.1473 2.49646 3.21475 2.51371 3.27977C2.52571 3.32578 2.81922 4.41661 3.64925 5.08068C4.47929 5.7447 5.84285 5.97953 5.90033 5.98913C5.98163 6.003 6.06594 6.00031 6.14562 5.9814C6.2253 5.96244 6.29773 5.92783 6.35635 5.88069L7.00288 5.36346L8.29593 6.39792L7.29293 7.19999C6.6689 7.19159 4.53379 7.05757 2.85623 5.71508C1.17316 4.36861 1.01015 2.65454 1.00015 2.16532L2.00269 1.36327ZM9 3.59979H10C10 1.54768 8.06342 0 5.49483 0V0.800043C7.52592 0.800043 9 1.9773 9 3.59979Z" fill="#E1E3E6"/>
</svg>
