<svg width="39" height="39" viewBox="0 0 39 39" fill="none" xmlns="http://www.w3.org/2000/svg">
<mask id="mask0_148_1722" style="mask-type:luminance" maskUnits="userSpaceOnUse" x="0" y="0" width="39" height="39">
<path d="M19.5 39C30.2696 39 39 30.2696 39 19.5C39 8.73045 30.2696 0 19.5 0C8.73045 0 0 8.73045 0 19.5C0 30.2696 8.73045 39 19.5 39Z" fill="white"/>
</mask>
<g mask="url(#mask0_148_1722)">
<path d="M0 0H39V39H0V0Z" fill="#FFE033"/>
<path d="M22.815 29.8933C26.6437 27.6858 29.5299 24.1509 30.927 19.958L35.256 21.4498C33.5082 26.6932 29.9012 31.1152 25.116 33.881C16.5945 38.7853 6.4545 37.3715 0 31.3558V23.9458L0.2925 24.4918C4.55325 31.853 14.4982 34.7 22.815 29.8933Z" fill="black"/>
<path d="M0 10.3837C1.23518 8.04257 3.10788 6.09889 5.4015 4.7775C11.8658 1.04325 19.4123 3.36375 22.542 8.78475C25.4768 13.8742 23.8485 20.3092 18.9248 23.1562C14.4203 25.7595 9.27225 24.18 7.1565 20.5237C5.27475 17.2575 6.318 13.2405 9.3015 11.5245C11.934 10.0035 14.664 10.9785 15.6878 12.7432C16.5653 14.2837 16.029 15.8242 15.0248 16.4092C14.6738 16.6042 14.4983 16.6043 14.3033 16.6043C14.3735 16.1495 14.3046 15.6842 14.1057 15.2693C13.9067 14.8544 13.5869 14.5094 13.1883 14.2795C12.7897 14.0496 12.3309 13.9456 11.8722 13.9812C11.4134 14.0168 10.9762 14.1902 10.6178 14.4787C10.2817 14.7576 10.0101 15.1059 9.82162 15.4998C9.63311 15.8936 9.53217 16.3237 9.52575 16.7602C9.50625 17.472 9.6915 18.2032 10.0718 18.8565C11.5733 21.45 14.9663 21.7327 17.316 20.3775C20.7578 18.3885 21.606 13.8937 19.6365 10.4715C17.2087 6.279 11.583 4.914 7.01025 7.5465C1.6965 10.6275 0.14625 17.5012 3.20775 22.815C6.67875 28.821 14.703 30.8782 21.216 27.1245C28.4213 22.9612 30.6443 13.689 26.4908 6.50325C24.8389 3.65885 22.3548 1.38915 19.3733 0L4.6605 0C2.96292 0.778083 1.39188 1.80682 0 3.05175L0 10.3837Z" fill="black"/>
</g>
</svg>
