<svg width="39" height="39" viewBox="0 0 39 39" fill="none" xmlns="http://www.w3.org/2000/svg">
<mask id="mask0_148_1721" style="mask-type:alpha" maskUnits="userSpaceOnUse" x="0" y="0" width="39" height="39">
<circle cx="19.5" cy="19.5" r="19.5" fill="#2FE52F"/>
</mask>
<g mask="url(#mask0_148_1721)">
<circle cx="19.5" cy="19.5" r="19.5" fill="#2FE52F"/>
<path d="M30.1688 29.7493C30.0593 29.6004 29.1121 28.9409 28.656 28.438C28.1998 27.9352 27.6584 27.2515 26.5011 26.8047C25.1084 26.3183 22.6319 25.8512 22.6319 25.8512L23.2972 23.336H23.7089C25.6827 23.336 27.4589 22.4425 27.4589 20.6902C27.4589 20.1275 27.4095 19.8064 27.4095 19.8064C27.4095 19.8064 29.8075 17.9981 29.8075 14.9327C29.8075 12.372 26.9078 10.6227 26.9078 9.14411C26.9078 8.77566 27.2216 8.41303 27.8482 8.35211L28.9998 8.20609C29.2739 8.17127 29.2913 7.7806 29.0211 7.72258L27.9199 7.48276C27.7814 7.45278 27.6507 7.39283 27.5364 7.30773L27.424 7.2236C27.1664 7.02246 26.9921 6.82422 26.3045 6.82422C25.612 6.82422 24.9621 7.26034 24.9621 8.65768C24.9621 10.9737 27.794 12.4146 27.794 14.5468C27.794 15.364 27.1693 16.2545 25.8647 16.2545C24.2667 16.2545 22.9815 14.278 19.5608 14.278C18.4141 14.278 17.3274 14.5004 16.4393 14.9607C14.7793 14.1571 9.40028 15.5177 9.40028 20.1623C9.40028 20.9272 9.66753 21.5973 10.2942 21.5973C10.5208 21.5973 10.7784 21.4774 10.8685 21.432C10.9799 21.3759 11.3121 21.2086 11.3121 21.2086C11.3121 21.2086 11.7246 21.7695 12.4423 21.7695C13.9251 21.7695 14.6767 20.5597 14.6767 20.5597L15.711 21.3652L13.6713 22.78C13.5009 22.8979 13.3721 23.0662 13.3023 23.2625L11.5329 28.0966C11.4583 28.3026 11.3634 28.3462 11.2075 28.4022C10.9954 28.4767 10.0172 28.7387 10.2709 29.5578C9.59688 29.3267 9.13975 30.4242 8.97025 30.96C8.79981 31.4957 8.73201 32.28 8.80266 32.4782C8.80266 32.4782 8.95184 32.8089 9.23173 32.7113C9.26855 32.6987 9.29953 32.6755 9.32861 32.6494C9.71406 32.3118 9.81189 32.2074 10.515 31.576C11.6191 30.5829 12.7048 30.1758 13.5299 28.2756C14.2767 26.5552 15.1764 24.6164 15.1764 24.6164C15.3091 24.3543 15.5512 24.1657 15.8369 24.099L20.6445 22.9899L20.415 26.6277C20.3888 27.0377 20.6736 27.4023 21.0774 27.4768L25.6827 28.2746C26.0023 29.2077 26.4652 29.4069 26.9844 29.0714C26.933 29.348 26.9446 29.6139 27.4793 29.9088C28.0138 30.2038 28.5814 30.286 29.0366 30.3237C29.303 30.3459 29.5199 30.344 29.6923 30.3218C29.8995 30.2947 30.1194 30.2067 30.2027 30.0152C30.2346 29.9369 30.2394 29.845 30.1688 29.7493Z" fill="black"/>
<path d="M17.557 15.6611L11.9319 18.4751L12.3358 19.9798L16.5507 17.8582L15.3905 19.5785L16.7193 20.6103L19.6596 18.8213C19.3187 19.3087 18.5962 20.4363 19.586 21.3597C21.1143 22.7851 24.2551 20.3289 25.7941 19.0437L25.0271 17.9878C23.4029 19.2807 21.2218 20.5484 20.7976 20.1703C20.3763 19.7951 21.5918 18.4316 22.3753 17.5526L22.3879 17.539L21.0649 16.222L17.6538 18.3988L18.7318 16.8438L17.557 15.6611Z" fill="#FFE033"/>
</g>
</svg>
